<svg width="9" height="17" viewBox="0 0 9 17" fill="none" xmlns="http://www.w3.org/2000/svg">
 <path
  d="M2.70855 8.50511L8.65727 2.08575C8.76462 1.97371 8.85022 1.83968 8.90906 1.6915C8.9679 1.54332 8.9988 1.38396 8.99997 1.22273C9.00113 1.0615 8.97252 0.901644 8.91582 0.752492C8.85912 0.603341 8.77547 0.46789 8.66974 0.354056C8.56402 0.240221 8.43834 0.150287 8.30007 0.0895075C8.16179 0.0287285 8.01369 -0.00167573 7.86441 7.12271e-05C7.71512 0.00181818 7.56766 0.0356815 7.43064 0.0996822C7.29361 0.163683 7.16978 0.256537 7.06636 0.372819L0.32744 7.64646C0.123625 7.86707 0.00643382 8.16408 0.000257116 8.47565C-0.00591959 8.78723 0.099394 9.08938 0.294279 9.31921L7.06151 16.6435C7.1657 16.7563 7.28945 16.8459 7.42569 16.907C7.56193 16.9682 7.70799 16.9998 7.85553 17C8.00307 17.0002 8.14921 16.969 8.28559 16.9082C8.42197 16.8474 8.54593 16.7582 8.65039 16.6457C8.75485 16.5332 8.83777 16.3995 8.8944 16.2524C8.95104 16.1052 8.98028 15.9475 8.98047 15.7882C8.98066 15.6288 8.95179 15.471 8.8955 15.3237C8.83921 15.1764 8.75661 15.0425 8.65241 14.9297L2.70855 8.50511Z"
  fill="black" />
</svg>