<svg width="21" height="21" viewBox="0 0 21 21" fill="none" xmlns="http://www.w3.org/2000/svg">
 <path
  d="M15.0093 11.4917C15.7531 11.4917 16.4076 11.0851 16.7448 10.4703L20.2949 4.03432C20.3785 3.88401 20.4214 3.71448 20.4193 3.54251C20.4173 3.37054 20.3703 3.20208 20.2832 3.05382C20.196 2.90555 20.0717 2.78262 19.9224 2.69717C19.7732 2.61173 19.6042 2.56674 19.4322 2.56665H4.75549L3.82332 0.583313H0.580566V2.56665H2.5639L6.13391 10.0934L4.79516 12.5131C4.07124 13.8419 5.02324 15.4583 6.53058 15.4583H18.4306V13.475H6.53058L7.62141 11.4917H15.0093ZM5.69758 4.54999H17.7464L15.0093 9.50833H8.04783L5.69758 4.54999ZM6.53058 16.45C5.43974 16.45 4.55716 17.3425 4.55716 18.4333C4.55716 19.5242 5.43974 20.4167 6.53058 20.4167C7.62141 20.4167 8.51392 19.5242 8.51392 18.4333C8.51392 17.3425 7.62141 16.45 6.53058 16.45ZM16.4473 16.45C15.3564 16.45 14.4738 17.3425 14.4738 18.4333C14.4738 19.5242 15.3564 20.4167 16.4473 20.4167C17.5381 20.4167 18.4306 19.5242 18.4306 18.4333C18.4306 17.3425 17.5381 16.45 16.4473 16.45Z" />
</svg>