<svg width="20" height="19" viewBox="0 0 20 19" fill="none" xmlns="http://www.w3.org/2000/svg">
 <path
  d="M10 0.735962C10 0.735962 3.97621 5.93596 0.609847 8.75214C0.502728 8.84547 0.416425 8.96028 0.356536 9.08912C0.296646 9.21796 0.264509 9.35794 0.262207 9.5C0.262207 9.75827 0.364802 10.006 0.547421 10.1886C0.730041 10.3712 0.977726 10.4738 1.23599 10.4738H3.18355V17.2903C3.18355 17.5485 3.28615 17.7962 3.46877 17.9788C3.65139 18.1614 3.89907 18.264 4.15734 18.264H7.07868C7.33695 18.264 7.58463 18.1614 7.76725 17.9788C7.94987 17.7962 8.05247 17.5485 8.05247 17.2903V13.3951H11.9476V17.2903C11.9476 17.5485 12.0502 17.7962 12.2328 17.9788C12.4154 18.1614 12.6631 18.264 12.9214 18.264H15.8427C16.101 18.264 16.3487 18.1614 16.5313 17.9788C16.7139 17.7962 16.8165 17.5485 16.8165 17.2903V10.4738H18.7641C19.0223 10.4738 19.27 10.3712 19.4526 10.1886C19.6353 10.006 19.7379 9.75827 19.7379 9.5C19.7365 9.35522 19.7022 9.21264 19.6376 9.08307C19.573 8.9535 19.4797 8.84033 19.3649 8.75214C16.0219 5.93596 10 0.735962 10 0.735962Z" />
</svg>