<svg width="20" height="21" viewBox="0 0 20 21" fill="none" xmlns="http://www.w3.org/2000/svg">
  <path
    d="M10.0001 4.81104C9.29683 4.81104 8.60939 5.01957 8.02468 5.41026C7.43996 5.80096 6.98423 6.35627 6.71511 7.00597C6.446 7.65567 6.37559 8.37058 6.51278 9.0603C6.64997 9.75002 6.98861 10.3836 7.48587 10.8808C7.98313 11.3781 8.61668 11.7167 9.3064 11.8539C9.99612 11.9911 10.711 11.9207 11.3607 11.6516C12.0104 11.3825 12.5657 10.9267 12.9564 10.342C13.3471 9.75731 13.5557 9.06987 13.5557 8.36664C13.5557 7.42363 13.1811 6.51925 12.5143 5.85245C11.8474 5.18564 10.9431 4.81104 10.0001 4.81104Z"
    fill="#AAADB2" />
  <path
    d="M10 0.544312C8.03095 0.544312 6.10612 1.1282 4.46892 2.22215C2.83172 3.31609 1.55567 4.87096 0.802147 6.69012C0.0486252 8.50929 -0.148531 10.511 0.235612 12.4423C0.619754 14.3735 1.56794 16.1474 2.96027 17.5397C4.3526 18.9321 6.12653 19.8802 8.05775 20.2644C9.98896 20.6485 11.9907 20.4514 13.8099 19.6979C15.629 18.9443 17.1839 17.6683 18.2779 16.0311C19.3718 14.3939 19.9557 12.469 19.9557 10.5C19.9527 7.86051 18.9028 5.32999 17.0364 3.46359C15.17 1.59719 12.6395 0.547323 10 0.544312V0.544312ZM15.6833 16.8475C15.6691 15.9147 15.2891 15.0249 14.6251 14.3696C13.9611 13.7144 13.0662 13.3462 12.1334 13.3445H7.86664C6.93378 13.3462 6.03895 13.7144 5.37494 14.3696C4.71093 15.0249 4.3309 15.9147 4.31673 16.8475C3.02716 15.696 2.11775 14.18 1.70893 12.5001C1.30011 10.8203 1.41116 9.05596 2.02737 7.44066C2.64359 5.82536 3.7359 4.43533 5.15967 3.45462C6.58344 2.47391 8.27151 1.94879 10.0004 1.94879C11.7292 1.94879 13.4173 2.47391 14.841 3.45462C16.2648 4.43533 17.3571 5.82536 17.9733 7.44066C18.5896 9.05596 18.7006 10.8203 18.2918 12.5001C17.883 14.18 16.9736 15.696 15.684 16.8475H15.6833Z" />
</svg>